<svg xmlns="http://www.w3.org/2000/svg" viewBox="0 0 79 110"><g data-name="Layer 2"><g data-name="document-checklist"><path fill="none" d="M0 0H79V110H0z"/><rect width="64.41" height="75" y="17.58" fill="#bed1f8" rx="2"/><rect width="48.64" height="59.7" x="7.74" y="24.97" fill="#fff" rx="2"/><path fill="#031e55" d="M35.81,16.54C35.1,15,37.45,12.07,37.45,8c0-2-1.11-5.33-5.76-5.34S25.85,5.8,25.85,8c0,4.09,2.27,7.09,1.64,8.52-.33.76-9.57,5.44-9.56,9.49a1.28,1.28,0,0,0,1.29,1.26l24.83.05a1.27,1.27,0,0,0,1.29-1.25C45.37,22,36.15,17.3,35.81,16.54Zm-4.18-5.67a2.58,2.58,0,1,1,2.58-2.58A2.58,2.58,0,0,1,31.63,10.87Z"/><path fill="#91b0f2" d="M43,39.12H29a.5.5,0,0,1-.5-.5.5.5,0,0,1,.5-.5H43a.5.5,0,0,1,.5.5A.5.5,0,0,1,43,39.12Z"/><path fill="#91b0f2" d="M48.55,43.34H29a.5.5,0,0,1-.5-.5.5.5,0,0,1,.5-.5H48.55a.5.5,0,0,1,.5.5A.5.5,0,0,1,48.55,43.34Z"/><path fill="#ff870a" d="M18.1,46a.53.53,0,0,1-.38-.16l-3-3.44a.51.51,0,0,1,0-.71.51.51,0,0,1,.71.05L18,44.66l6.09-8.95a.5.5,0,1,1,.82.56l-6.44,9.49a.52.52,0,0,1-.38.21Z"/><path fill="#91b0f2" d="M50.47,55.37h-21a.5.5,0,0,1-.5-.5.51.51,0,0,1,.5-.5h21a.51.51,0,0,1,.5.5A.5.5,0,0,1,50.47,55.37Z"/><path fill="#91b0f2" d="M39.75,59.39H29.44a.51.51,0,0,1-.5-.5.5.5,0,0,1,.5-.5H39.75a.5.5,0,0,1,.5.5A.5.5,0,0,1,39.75,59.39Z"/><path fill="#ff870a" d="M18.1,61.41a.54.54,0,0,1-.38-.17l-3-3.44a.51.51,0,0,1,0-.71.51.51,0,0,1,.71,0l2.61,3,6.09-9a.5.5,0,1,1,.82.57l-6.44,9.48a.52.52,0,0,1-.38.21Z"/><path fill="#91b0f2" d="M47.64,70.8H29.44a.5.5,0,0,1-.5-.5.51.51,0,0,1,.5-.5h18.2a.51.51,0,0,1,.5.5A.5.5,0,0,1,47.64,70.8Z"/><path fill="#91b0f2" d="M42.58,74.82H29.44a.51.51,0,0,1-.5-.5.5.5,0,0,1,.5-.5H42.58a.5.5,0,0,1,.5.5A.5.5,0,0,1,42.58,74.82Z"/><path fill="#ff870a" d="M18.1,76.84a.5.5,0,0,1-.38-.17l-3-3.44a.5.5,0,0,1,0-.7.5.5,0,0,1,.71,0l2.61,3,6.09-9a.5.5,0,1,1,.82.57l-6.44,9.48a.5.5,0,0,1-.38.22Z"/><path fill="#031e55" d="M70.83,12.15a.51.51,0,0,1-.36-.15.51.51,0,0,1,0-.71l3.07-3a.51.51,0,0,1,.71,0,.5.5,0,0,1,0,.71l-3.06,3A.5.5,0,0,1,70.83,12.15Z"/><path fill="#031e55" d="M63.13,9.07a.5.5,0,0,1-.5-.5V4.27a.5.5,0,0,1,.5-.5.51.51,0,0,1,.5.5v4.3A.5.5,0,0,1,63.13,9.07Z"/><path fill="#031e55" d="M78.41,19.72H74.08a.5.5,0,0,1-.5-.5.5.5,0,0,1,.5-.5h4.33a.5.5,0,0,1,.5.5A.5.5,0,0,1,78.41,19.72Z"/></g></g></svg>