<svg width="92" height="47" viewBox="0 0 92 47" fill="none" xmlns="http://www.w3.org/2000/svg">
<path d="M16.0396 2.47372C19.443 0.50876 23.6362 0.50876 27.0396 2.47372L36.5792 7.98141C39.9826 9.94639 42.0792 13.5778 42.0792 17.5077V28.5231C42.0792 32.453 39.9826 36.0844 36.5792 38.0494L27.0396 43.5571C23.6362 45.522 19.443 45.522 16.0396 43.5571L6.50001 38.0494C3.09659 36.0844 1 32.453 1 28.5231V17.5077C1 13.5778 3.09659 9.94639 6.5 7.98141L16.0396 2.47372Z" stroke="#2B3445" stroke-width="2"/>
<path d="M80.4231 10H46.5769C40.7354 10 36 15.5964 36 22.5C36 29.4036 40.7354 35 46.5769 35H80.4231C86.2645 35 91 29.4036 91 22.5C91 15.5964 86.2645 10 80.4231 10Z" fill="#2B3445" stroke="#2B3445" stroke-width="2"/>
<mask id="path-3-outside-1_5_227" maskUnits="userSpaceOnUse" x="42" y="16" width="43" height="15" fill="black">
<rect fill="white" x="42" y="16" width="43" height="15"/>
<path d="M57.0887 18.2C57.2327 18.408 57.2807 18.736 57.2327 19.184C57.2007 19.616 57.1207 20.088 56.9927 20.6C56.8647 21.096 56.7127 21.592 56.5367 22.088C56.3607 22.568 56.2167 22.968 56.1047 23.288C55.8327 24.024 55.5927 24.712 55.3847 25.352C55.1767 25.992 54.9287 26.696 54.6407 27.464C54.5447 27.688 54.4487 27.912 54.3527 28.136C54.2727 28.36 54.1687 28.56 54.0407 28.736C53.9287 28.912 53.7847 29.056 53.6087 29.168C53.4487 29.28 53.2487 29.336 53.0087 29.336C52.7367 29.336 52.4967 29.24 52.2887 29.048C52.0967 28.856 51.9287 28.616 51.7847 28.328C51.6567 28.04 51.5447 27.736 51.4487 27.416C51.3527 27.096 51.2727 26.816 51.2087 26.576C51.0007 25.872 50.8167 25.232 50.6567 24.656C50.4967 24.064 50.3527 23.536 50.2247 23.072C50.0807 23.536 49.9367 24.04 49.7927 24.584C49.6487 25.128 49.4647 25.744 49.2407 26.432C49.1767 26.672 49.0967 26.968 49.0007 27.32C48.9047 27.656 48.7847 27.976 48.6407 28.28C48.5127 28.584 48.3447 28.84 48.1367 29.048C47.9447 29.272 47.7127 29.368 47.4407 29.336C47.0567 29.32 46.7207 29.168 46.4327 28.88C46.1607 28.576 45.9207 28.216 45.7127 27.8C45.5207 27.384 45.3527 26.952 45.2087 26.504C45.0647 26.056 44.9447 25.664 44.8487 25.328C44.7207 24.896 44.5687 24.416 44.3927 23.888C44.2167 23.36 44.0407 22.824 43.8647 22.28C43.7047 21.72 43.5527 21.168 43.4087 20.624C43.2647 20.064 43.1687 19.552 43.1207 19.088C43.0887 18.784 43.1447 18.504 43.2887 18.248C43.4487 17.992 43.6487 17.816 43.8887 17.72C44.1447 17.608 44.4167 17.584 44.7047 17.648C45.0087 17.712 45.2807 17.904 45.5207 18.224C45.6487 18.384 45.7607 18.584 45.8567 18.824C45.9687 19.064 46.0647 19.328 46.1447 19.616C46.2247 19.888 46.3047 20.168 46.3847 20.456C46.4647 20.744 46.5447 21.024 46.6247 21.296C46.8007 21.904 46.9447 22.384 47.0567 22.736C47.1847 23.072 47.3127 23.424 47.4407 23.792C47.5527 23.424 47.6647 23.072 47.7767 22.736C47.9047 22.384 48.0567 21.904 48.2327 21.296C48.2967 21.104 48.3687 20.888 48.4487 20.648C48.5447 20.392 48.6407 20.152 48.7367 19.928C48.8487 19.704 48.9687 19.496 49.0967 19.304C49.2407 19.096 49.3927 18.944 49.5527 18.848C49.9047 18.608 50.2247 18.552 50.5127 18.68C50.8007 18.792 51.0487 18.992 51.2567 19.28C51.4647 19.568 51.6407 19.904 51.7847 20.288C51.9447 20.656 52.0727 20.992 52.1687 21.296C52.2647 21.616 52.3527 21.896 52.4327 22.136C52.5127 22.36 52.5847 22.568 52.6487 22.76C52.7127 22.952 52.7687 23.136 52.8167 23.312C52.8807 23.488 52.9447 23.672 53.0087 23.864C53.0727 23.672 53.1287 23.488 53.1767 23.312C53.2407 23.136 53.3047 22.952 53.3687 22.76C53.4327 22.568 53.5047 22.36 53.5847 22.136C53.6647 21.896 53.7527 21.616 53.8487 21.296C53.9127 21.088 53.9767 20.848 54.0407 20.576C54.1207 20.304 54.2007 20.032 54.2807 19.76C54.3607 19.472 54.4407 19.2 54.5207 18.944C54.6167 18.688 54.7207 18.472 54.8327 18.296C54.9447 18.12 55.0967 17.976 55.2887 17.864C55.4807 17.736 55.6807 17.664 55.8887 17.648C56.0967 17.616 56.3047 17.64 56.5127 17.72C56.7367 17.8 56.9287 17.96 57.0887 18.2ZM62.2943 18.152C62.8223 17.896 63.3743 17.712 63.9503 17.6C64.5263 17.488 65.0943 17.464 65.6543 17.528C66.2303 17.592 66.7823 17.744 67.3103 17.984C67.8543 18.224 68.3503 18.56 68.7983 18.992C69.1663 19.36 69.4863 19.808 69.7583 20.336C70.0303 20.848 70.2303 21.352 70.3583 21.848C70.6303 22.728 70.6703 23.616 70.4783 24.512C70.2863 25.408 69.9583 26.24 69.4943 27.008C69.2703 27.36 68.9903 27.68 68.6543 27.968C68.3343 28.24 67.9903 28.464 67.6223 28.64C67.1423 28.864 66.6223 29.016 66.0623 29.096C65.5023 29.192 64.9583 29.216 64.4303 29.168C63.4703 29.12 62.6223 28.88 61.8863 28.448C61.1663 28.016 60.5823 27.464 60.1343 26.792C59.7023 26.12 59.4143 25.36 59.2703 24.512C59.1423 23.648 59.1983 22.768 59.4383 21.872C59.6943 20.912 60.0623 20.136 60.5423 19.544C61.0383 18.936 61.6223 18.472 62.2943 18.152ZM63.0143 21.368C62.7743 21.592 62.5903 21.872 62.4623 22.208C62.3343 22.544 62.2543 22.896 62.2223 23.264C62.1903 23.616 62.2143 23.976 62.2943 24.344C62.3903 24.696 62.5343 25.016 62.7263 25.304C62.8863 25.544 63.1743 25.744 63.5903 25.904C64.0063 26.064 64.4383 26.16 64.8863 26.192C65.3983 26.224 65.8463 26.088 66.2303 25.784C66.6143 25.464 66.9023 25.072 67.0943 24.608C67.3023 24.144 67.3983 23.64 67.3823 23.096C67.3663 22.552 67.2223 22.056 66.9503 21.608C66.7583 21.288 66.4863 21.056 66.1343 20.912C65.7983 20.752 65.4383 20.672 65.0543 20.672C64.6863 20.656 64.3183 20.712 63.9503 20.84C63.5823 20.952 63.2703 21.128 63.0143 21.368ZM75.6068 18.152C76.1348 17.896 76.6868 17.712 77.2628 17.6C77.8388 17.488 78.4068 17.464 78.9668 17.528C79.5428 17.592 80.0948 17.744 80.6228 17.984C81.1668 18.224 81.6628 18.56 82.1108 18.992C82.4788 19.36 82.7988 19.808 83.0708 20.336C83.3428 20.848 83.5428 21.352 83.6708 21.848C83.9428 22.728 83.9828 23.616 83.7908 24.512C83.5988 25.408 83.2708 26.24 82.8068 27.008C82.5828 27.36 82.3028 27.68 81.9668 27.968C81.6468 28.24 81.3028 28.464 80.9348 28.64C80.4548 28.864 79.9348 29.016 79.3748 29.096C78.8148 29.192 78.2708 29.216 77.7428 29.168C76.7828 29.12 75.9348 28.88 75.1988 28.448C74.4788 28.016 73.8948 27.464 73.4468 26.792C73.0148 26.12 72.7268 25.36 72.5828 24.512C72.4548 23.648 72.5108 22.768 72.7508 21.872C73.0068 20.912 73.3748 20.136 73.8548 19.544C74.3508 18.936 74.9348 18.472 75.6068 18.152ZM76.3268 21.368C76.0868 21.592 75.9028 21.872 75.7748 22.208C75.6468 22.544 75.5668 22.896 75.5348 23.264C75.5028 23.616 75.5268 23.976 75.6068 24.344C75.7028 24.696 75.8468 25.016 76.0388 25.304C76.1988 25.544 76.4868 25.744 76.9028 25.904C77.3188 26.064 77.7508 26.16 78.1988 26.192C78.7108 26.224 79.1588 26.088 79.5428 25.784C79.9268 25.464 80.2148 25.072 80.4068 24.608C80.6148 24.144 80.7108 23.64 80.6948 23.096C80.6788 22.552 80.5348 22.056 80.2628 21.608C80.0708 21.288 79.7988 21.056 79.4468 20.912C79.1108 20.752 78.7508 20.672 78.3668 20.672C77.9988 20.656 77.6308 20.712 77.2628 20.84C76.8948 20.952 76.5828 21.128 76.3268 21.368Z"/>
</mask>
<path d="M57.0887 18.2C57.2327 18.408 57.2807 18.736 57.2327 19.184C57.2007 19.616 57.1207 20.088 56.9927 20.6C56.8647 21.096 56.7127 21.592 56.5367 22.088C56.3607 22.568 56.2167 22.968 56.1047 23.288C55.8327 24.024 55.5927 24.712 55.3847 25.352C55.1767 25.992 54.9287 26.696 54.6407 27.464C54.5447 27.688 54.4487 27.912 54.3527 28.136C54.2727 28.36 54.1687 28.56 54.0407 28.736C53.9287 28.912 53.7847 29.056 53.6087 29.168C53.4487 29.28 53.2487 29.336 53.0087 29.336C52.7367 29.336 52.4967 29.24 52.2887 29.048C52.0967 28.856 51.9287 28.616 51.7847 28.328C51.6567 28.04 51.5447 27.736 51.4487 27.416C51.3527 27.096 51.2727 26.816 51.2087 26.576C51.0007 25.872 50.8167 25.232 50.6567 24.656C50.4967 24.064 50.3527 23.536 50.2247 23.072C50.0807 23.536 49.9367 24.04 49.7927 24.584C49.6487 25.128 49.4647 25.744 49.2407 26.432C49.1767 26.672 49.0967 26.968 49.0007 27.32C48.9047 27.656 48.7847 27.976 48.6407 28.28C48.5127 28.584 48.3447 28.84 48.1367 29.048C47.9447 29.272 47.7127 29.368 47.4407 29.336C47.0567 29.32 46.7207 29.168 46.4327 28.88C46.1607 28.576 45.9207 28.216 45.7127 27.8C45.5207 27.384 45.3527 26.952 45.2087 26.504C45.0647 26.056 44.9447 25.664 44.8487 25.328C44.7207 24.896 44.5687 24.416 44.3927 23.888C44.2167 23.36 44.0407 22.824 43.8647 22.28C43.7047 21.72 43.5527 21.168 43.4087 20.624C43.2647 20.064 43.1687 19.552 43.1207 19.088C43.0887 18.784 43.1447 18.504 43.2887 18.248C43.4487 17.992 43.6487 17.816 43.8887 17.72C44.1447 17.608 44.4167 17.584 44.7047 17.648C45.0087 17.712 45.2807 17.904 45.5207 18.224C45.6487 18.384 45.7607 18.584 45.8567 18.824C45.9687 19.064 46.0647 19.328 46.1447 19.616C46.2247 19.888 46.3047 20.168 46.3847 20.456C46.4647 20.744 46.5447 21.024 46.6247 21.296C46.8007 21.904 46.9447 22.384 47.0567 22.736C47.1847 23.072 47.3127 23.424 47.4407 23.792C47.5527 23.424 47.6647 23.072 47.7767 22.736C47.9047 22.384 48.0567 21.904 48.2327 21.296C48.2967 21.104 48.3687 20.888 48.4487 20.648C48.5447 20.392 48.6407 20.152 48.7367 19.928C48.8487 19.704 48.9687 19.496 49.0967 19.304C49.2407 19.096 49.3927 18.944 49.5527 18.848C49.9047 18.608 50.2247 18.552 50.5127 18.68C50.8007 18.792 51.0487 18.992 51.2567 19.28C51.4647 19.568 51.6407 19.904 51.7847 20.288C51.9447 20.656 52.0727 20.992 52.1687 21.296C52.2647 21.616 52.3527 21.896 52.4327 22.136C52.5127 22.36 52.5847 22.568 52.6487 22.76C52.7127 22.952 52.7687 23.136 52.8167 23.312C52.8807 23.488 52.9447 23.672 53.0087 23.864C53.0727 23.672 53.1287 23.488 53.1767 23.312C53.2407 23.136 53.3047 22.952 53.3687 22.76C53.4327 22.568 53.5047 22.36 53.5847 22.136C53.6647 21.896 53.7527 21.616 53.8487 21.296C53.9127 21.088 53.9767 20.848 54.0407 20.576C54.1207 20.304 54.2007 20.032 54.2807 19.76C54.3607 19.472 54.4407 19.2 54.5207 18.944C54.6167 18.688 54.7207 18.472 54.8327 18.296C54.9447 18.12 55.0967 17.976 55.2887 17.864C55.4807 17.736 55.6807 17.664 55.8887 17.648C56.0967 17.616 56.3047 17.64 56.5127 17.72C56.7367 17.8 56.9287 17.96 57.0887 18.2ZM62.2943 18.152C62.8223 17.896 63.3743 17.712 63.9503 17.6C64.5263 17.488 65.0943 17.464 65.6543 17.528C66.2303 17.592 66.7823 17.744 67.3103 17.984C67.8543 18.224 68.3503 18.56 68.7983 18.992C69.1663 19.36 69.4863 19.808 69.7583 20.336C70.0303 20.848 70.2303 21.352 70.3583 21.848C70.6303 22.728 70.6703 23.616 70.4783 24.512C70.2863 25.408 69.9583 26.24 69.4943 27.008C69.2703 27.36 68.9903 27.68 68.6543 27.968C68.3343 28.24 67.9903 28.464 67.6223 28.64C67.1423 28.864 66.6223 29.016 66.0623 29.096C65.5023 29.192 64.9583 29.216 64.4303 29.168C63.4703 29.12 62.6223 28.88 61.8863 28.448C61.1663 28.016 60.5823 27.464 60.1343 26.792C59.7023 26.12 59.4143 25.36 59.2703 24.512C59.1423 23.648 59.1983 22.768 59.4383 21.872C59.6943 20.912 60.0623 20.136 60.5423 19.544C61.0383 18.936 61.6223 18.472 62.2943 18.152ZM63.0143 21.368C62.7743 21.592 62.5903 21.872 62.4623 22.208C62.3343 22.544 62.2543 22.896 62.2223 23.264C62.1903 23.616 62.2143 23.976 62.2943 24.344C62.3903 24.696 62.5343 25.016 62.7263 25.304C62.8863 25.544 63.1743 25.744 63.5903 25.904C64.0063 26.064 64.4383 26.16 64.8863 26.192C65.3983 26.224 65.8463 26.088 66.2303 25.784C66.6143 25.464 66.9023 25.072 67.0943 24.608C67.3023 24.144 67.3983 23.64 67.3823 23.096C67.3663 22.552 67.2223 22.056 66.9503 21.608C66.7583 21.288 66.4863 21.056 66.1343 20.912C65.7983 20.752 65.4383 20.672 65.0543 20.672C64.6863 20.656 64.3183 20.712 63.9503 20.84C63.5823 20.952 63.2703 21.128 63.0143 21.368ZM75.6068 18.152C76.1348 17.896 76.6868 17.712 77.2628 17.6C77.8388 17.488 78.4068 17.464 78.9668 17.528C79.5428 17.592 80.0948 17.744 80.6228 17.984C81.1668 18.224 81.6628 18.56 82.1108 18.992C82.4788 19.36 82.7988 19.808 83.0708 20.336C83.3428 20.848 83.5428 21.352 83.6708 21.848C83.9428 22.728 83.9828 23.616 83.7908 24.512C83.5988 25.408 83.2708 26.24 82.8068 27.008C82.5828 27.36 82.3028 27.68 81.9668 27.968C81.6468 28.24 81.3028 28.464 80.9348 28.64C80.4548 28.864 79.9348 29.016 79.3748 29.096C78.8148 29.192 78.2708 29.216 77.7428 29.168C76.7828 29.12 75.9348 28.88 75.1988 28.448C74.4788 28.016 73.8948 27.464 73.4468 26.792C73.0148 26.12 72.7268 25.36 72.5828 24.512C72.4548 23.648 72.5108 22.768 72.7508 21.872C73.0068 20.912 73.3748 20.136 73.8548 19.544C74.3508 18.936 74.9348 18.472 75.6068 18.152ZM76.3268 21.368C76.0868 21.592 75.9028 21.872 75.7748 22.208C75.6468 22.544 75.5668 22.896 75.5348 23.264C75.5028 23.616 75.5268 23.976 75.6068 24.344C75.7028 24.696 75.8468 25.016 76.0388 25.304C76.1988 25.544 76.4868 25.744 76.9028 25.904C77.3188 26.064 77.7508 26.16 78.1988 26.192C78.7108 26.224 79.1588 26.088 79.5428 25.784C79.9268 25.464 80.2148 25.072 80.4068 24.608C80.6148 24.144 80.7108 23.64 80.6948 23.096C80.6788 22.552 80.5348 22.056 80.2628 21.608C80.0708 21.288 79.7988 21.056 79.4468 20.912C79.1108 20.752 78.7508 20.672 78.3668 20.672C77.9988 20.656 77.6308 20.712 77.2628 20.84C76.8948 20.952 76.5828 21.128 76.3268 21.368Z" fill="white"/>
<path d="M57.0887 18.2L56.2567 18.7547L56.2615 18.762L56.2665 18.7692L57.0887 18.2ZM57.2327 19.184L56.2384 19.0775L56.2367 19.0938L56.2355 19.1101L57.2327 19.184ZM56.9927 20.6L57.961 20.8499L57.9629 20.8425L56.9927 20.6ZM56.5367 22.088L57.4756 22.4323L57.4791 22.4224L56.5367 22.088ZM56.1047 23.288L57.0427 23.6347L57.0457 23.6265L57.0486 23.6184L56.1047 23.288ZM55.3847 25.352L56.3358 25.6611L56.3358 25.6611L55.3847 25.352ZM54.6407 27.464L55.5599 27.8579L55.569 27.8367L55.577 27.8151L54.6407 27.464ZM54.3527 28.136L53.4336 27.7421L53.4214 27.7705L53.411 27.7997L54.3527 28.136ZM54.0407 28.736L53.232 28.1478L53.2137 28.1729L53.1971 28.1991L54.0407 28.736ZM53.6087 29.168L53.0718 28.3243L53.0533 28.3362L53.0353 28.3488L53.6087 29.168ZM52.2887 29.048L51.5816 29.7551L51.5957 29.7692L51.6104 29.7828L52.2887 29.048ZM51.7847 28.328L50.8709 28.7341L50.8801 28.7549L50.8903 28.7752L51.7847 28.328ZM51.4487 27.416L50.4909 27.7033L50.4909 27.7033L51.4487 27.416ZM51.2087 26.576L52.175 26.3183L52.1715 26.3054L52.1677 26.2927L51.2087 26.576ZM50.6567 24.656L49.6913 24.9169L49.6932 24.9236L50.6567 24.656ZM50.2247 23.072L51.1887 22.8061L50.2812 19.5163L49.2697 22.7756L50.2247 23.072ZM49.7927 24.584L48.826 24.3281L48.826 24.3281L49.7927 24.584ZM49.2407 26.432L48.2898 26.1224L48.2815 26.1482L48.2745 26.1743L49.2407 26.432ZM49.0007 27.32L49.9623 27.5947L49.9655 27.5831L49.0007 27.32ZM48.6407 28.28L47.737 27.8519L47.7276 27.8717L47.7191 27.8919L48.6407 28.28ZM48.1367 29.048L47.4296 28.3409L47.4025 28.368L47.3775 28.3972L48.1367 29.048ZM47.4407 29.336L47.5576 28.3428L47.5201 28.3384L47.4823 28.3369L47.4407 29.336ZM46.4327 28.88L45.6875 29.5468L45.706 29.5675L45.7256 29.5871L46.4327 28.88ZM45.7127 27.8L44.8048 28.2191L44.8113 28.2332L44.8183 28.2472L45.7127 27.8ZM44.8487 25.328L45.8103 25.0533L45.8075 25.0439L44.8487 25.328ZM44.3927 23.888L45.3414 23.5718L45.3414 23.5718L44.3927 23.888ZM43.8647 22.28L42.9032 22.5547L42.9079 22.5714L42.9133 22.5878L43.8647 22.28ZM43.4087 20.624L42.4402 20.873L42.442 20.8799L43.4087 20.624ZM43.1207 19.088L44.1154 18.9851L44.1152 18.9833L43.1207 19.088ZM43.2887 18.248L42.4407 17.718L42.4285 17.7376L42.4171 17.7577L43.2887 18.248ZM43.8887 17.72L44.2601 18.6485L44.2749 18.6426L44.2895 18.6362L43.8887 17.72ZM44.7047 17.648L44.4878 18.6242L44.4987 18.6265L44.7047 17.648ZM45.5207 18.224L44.7207 18.824L44.7301 18.8365L44.7398 18.8487L45.5207 18.224ZM45.8567 18.824L44.9282 19.1954L44.9387 19.2215L44.9505 19.2469L45.8567 18.824ZM46.1447 19.616L45.1812 19.8836L45.1832 19.8909L45.1854 19.8982L46.1447 19.616ZM46.3847 20.456L45.4212 20.7236L45.4212 20.7236L46.3847 20.456ZM46.6247 21.296L47.5853 21.0179L47.5841 21.0138L46.6247 21.296ZM47.0567 22.736L46.1038 23.0392L46.1123 23.0659L46.1222 23.092L47.0567 22.736ZM47.4407 23.792L46.4962 24.1205L47.5041 27.0182L48.3974 24.0832L47.4407 23.792ZM47.7767 22.736L46.8369 22.3943L46.8323 22.407L46.828 22.4198L47.7767 22.736ZM48.2327 21.296L47.284 20.9798L47.2777 20.9987L47.2722 21.0179L48.2327 21.296ZM48.4487 20.648L47.5124 20.2969L47.5059 20.3142L47.5 20.3318L48.4487 20.648ZM48.7367 19.928L47.8423 19.4808L47.8291 19.5071L47.8176 19.5341L48.7367 19.928ZM49.0967 19.304L48.2745 18.7348L48.2695 18.742L48.2647 18.7493L49.0967 19.304ZM49.5527 18.848L50.0672 19.7055L50.0921 19.6906L50.1161 19.6742L49.5527 18.848ZM50.5127 18.68L50.1066 19.5938L50.1282 19.6034L50.1503 19.612L50.5127 18.68ZM51.2567 19.28L52.0674 18.6945L52.0674 18.6945L51.2567 19.28ZM51.7847 20.288L50.8484 20.6391L50.8574 20.6632L50.8676 20.6867L51.7847 20.288ZM52.1687 21.296L53.1265 21.0087L53.1245 21.0017L53.1223 20.9949L52.1687 21.296ZM52.4327 22.136L51.484 22.4522L51.4874 22.4623L51.491 22.4723L52.4327 22.136ZM52.6487 22.76L53.5974 22.4438L53.5974 22.4438L52.6487 22.76ZM52.8167 23.312L51.852 23.5751L51.8628 23.6149L51.8769 23.6537L52.8167 23.312ZM53.0087 23.864L52.06 24.1802L53.0087 27.0263L53.9574 24.1802L53.0087 23.864ZM53.1767 23.312L52.2369 22.9703L52.2228 23.0091L52.212 23.0489L53.1767 23.312ZM53.3687 22.76L52.42 22.4438L52.42 22.4438L53.3687 22.76ZM53.5847 22.136L54.5265 22.4723L54.53 22.4623L54.5334 22.4522L53.5847 22.136ZM53.8487 21.296L52.8929 21.0019L52.8909 21.0087L53.8487 21.296ZM54.0407 20.576L53.0814 20.2938L53.0736 20.3202L53.0673 20.347L54.0407 20.576ZM54.2807 19.76L55.2401 20.0422L55.2422 20.0349L55.2442 20.0276L54.2807 19.76ZM54.5207 18.944L53.5844 18.5929L53.5746 18.619L53.5662 18.6457L54.5207 18.944ZM54.8327 18.296L55.6764 18.8329L55.6764 18.8329L54.8327 18.296ZM55.2887 17.864L55.7926 18.7278L55.8185 18.7127L55.8434 18.696L55.2887 17.864ZM55.8887 17.648L55.9654 18.6451L56.0033 18.6421L56.0408 18.6364L55.8887 17.648ZM56.5127 17.72L56.1537 18.6533L56.165 18.6577L56.1764 18.6617L56.5127 17.72ZM56.2665 18.7692C56.2279 18.7135 56.2349 18.6898 56.2433 18.7468C56.2516 18.8039 56.2564 18.9094 56.2384 19.0775L58.227 19.2905C58.2826 18.7715 58.2639 18.1406 57.9109 17.6308L56.2665 18.7692ZM56.2355 19.1101C56.2085 19.4745 56.1396 19.8893 56.0226 20.3575L57.9629 20.8425C58.1018 20.2867 58.193 19.7575 58.23 19.2579L56.2355 19.1101ZM56.0244 20.3501C55.904 20.8168 55.7607 21.2846 55.5943 21.7536L57.4791 22.4224C57.6647 21.8994 57.8254 21.3752 57.961 20.8499L56.0244 20.3501ZM55.5978 21.7437C55.4209 22.2263 55.2751 22.6313 55.1609 22.9576L57.0486 23.6184C57.1584 23.3047 57.3005 22.9097 57.4756 22.4323L55.5978 21.7437ZM55.1667 22.9413C54.8909 23.6878 54.6464 24.3884 54.4337 25.0429L56.3358 25.6611C56.5391 25.0356 56.7746 24.3602 57.0427 23.6347L55.1667 22.9413ZM54.4337 25.0429C54.2311 25.6661 53.9883 26.3559 53.7044 27.1129L55.577 27.8151C55.8692 27.0361 56.1223 26.3179 56.3358 25.6611L54.4337 25.0429ZM53.7216 27.0701C53.6256 27.2941 53.5296 27.5181 53.4336 27.7421L55.2719 28.5299C55.3679 28.3059 55.4639 28.0819 55.5599 27.8579L53.7216 27.0701ZM53.411 27.7997C53.3601 27.9421 53.2989 28.0558 53.232 28.1478L54.8495 29.3242C55.0385 29.0642 55.1853 28.7779 55.2945 28.4723L53.411 27.7997ZM53.1971 28.1991C53.1636 28.2516 53.1244 28.2909 53.0718 28.3243L54.1456 30.0117C54.4451 29.8211 54.6938 29.5724 54.8844 29.2729L53.1971 28.1991ZM53.0353 28.3488C53.0436 28.3429 53.0516 28.3385 53.0583 28.3353C53.065 28.3322 53.0689 28.3311 53.0691 28.331C53.0692 28.331 53.0514 28.336 53.0087 28.336V30.336C53.4063 30.336 53.819 30.2415 54.1822 29.9872L53.0353 28.3488ZM53.0087 28.336C52.9998 28.336 52.9956 28.3352 52.995 28.3351C52.9945 28.335 52.9952 28.3352 52.9961 28.3355C52.997 28.3359 52.9955 28.3354 52.9915 28.3328C52.9873 28.3301 52.979 28.3243 52.967 28.3132L51.6104 29.7828C51.9949 30.1377 52.4743 30.336 53.0087 30.336V28.336ZM52.9958 28.3409C52.8924 28.2375 52.7838 28.09 52.6791 27.8808L50.8903 28.7752C51.0737 29.142 51.301 29.4745 51.5816 29.7551L52.9958 28.3409ZM52.6985 27.9219C52.5887 27.6747 52.4911 27.4106 52.4065 27.1287L50.4909 27.7033C50.5983 28.0614 50.7248 28.4053 50.8709 28.7341L52.6985 27.9219ZM52.4065 27.1287C52.3126 26.8154 52.2356 26.5457 52.175 26.3183L50.2425 26.8337C50.3099 27.0863 50.3929 27.3766 50.4909 27.7033L52.4065 27.1287ZM52.1677 26.2927C51.9609 25.5928 51.7785 24.9581 51.6202 24.3884L49.6932 24.9236C49.8549 25.5059 50.0405 26.1512 50.2497 26.8593L52.1677 26.2927ZM51.6221 24.3951C51.4617 23.8018 51.3173 23.2721 51.1887 22.8061L49.2607 23.3379C49.3882 23.7999 49.5317 24.3262 49.6914 24.9169L51.6221 24.3951ZM49.2697 22.7756C49.1209 23.2549 48.9731 23.7726 48.826 24.3281L50.7594 24.8399C50.9004 24.3074 51.0405 23.8171 51.1798 23.3684L49.2697 22.7756ZM48.826 24.3281C48.6879 24.8498 48.5096 25.4474 48.2898 26.1224L50.1916 26.7416C50.4198 26.0406 50.6095 25.4062 50.7594 24.8399L48.826 24.3281ZM48.2745 26.1743C48.2111 26.4119 48.1317 26.7059 48.036 27.0569L49.9655 27.5831C50.0618 27.2301 50.1423 26.9321 50.207 26.6897L48.2745 26.1743ZM48.0392 27.0453C47.9576 27.3307 47.8567 27.5992 47.737 27.8519L49.5445 28.7081C49.7128 28.3528 49.8518 27.9813 49.9622 27.5947L48.0392 27.0453ZM47.7191 27.8919C47.6352 28.0911 47.5357 28.2348 47.4296 28.3409L48.8438 29.7551C49.1538 29.4452 49.3902 29.0769 49.5624 28.6681L47.7191 27.8919ZM47.3775 28.3972C47.366 28.4106 47.3836 28.3858 47.4364 28.364C47.4614 28.3536 47.4872 28.347 47.5112 28.344C47.5349 28.341 47.5511 28.3421 47.5576 28.3428L47.3239 30.3292C47.9559 30.4035 48.507 30.1526 48.896 29.6988L47.3775 28.3972ZM47.4823 28.3369C47.3649 28.332 47.2621 28.2952 47.1398 28.1729L45.7256 29.5871C46.1794 30.0408 46.7486 30.308 47.3991 30.3351L47.4823 28.3369ZM47.178 28.2132C46.9728 27.9839 46.7808 27.7002 46.6071 27.3528L44.8183 28.2472C45.0606 28.7318 45.3486 29.1681 45.6875 29.5468L47.178 28.2132ZM46.6207 27.3809C46.4461 27.0027 46.2927 26.6085 46.1607 26.198L44.2567 26.81C44.4127 27.2955 44.5953 27.7653 44.8048 28.2191L46.6207 27.3809ZM46.1607 26.198C46.019 25.7571 45.9024 25.3759 45.8102 25.0533L43.8872 25.6027C43.987 25.9521 44.1104 26.3549 44.2567 26.81L46.1607 26.198ZM45.8075 25.0439C45.6757 24.599 45.5202 24.1081 45.3414 23.5718L43.444 24.2042C43.6173 24.7239 43.7657 25.193 43.8899 25.6121L45.8075 25.0439ZM45.3414 23.5718C45.1664 23.0466 44.9913 22.5134 44.8162 21.9722L42.9133 22.5878C43.0902 23.1346 43.2671 23.6734 43.444 24.2042L45.3414 23.5718ZM44.8262 22.0053C44.668 21.4513 44.5177 20.9056 44.3754 20.3681L42.442 20.8799C42.5877 21.4304 42.7415 21.9887 42.9032 22.5547L44.8262 22.0053ZM44.3772 20.375C44.2428 19.8521 44.1573 19.3898 44.1154 18.9851L42.126 19.1909C42.1802 19.7142 42.2867 20.2759 42.4402 20.873L44.3772 20.375ZM44.1152 18.9833C44.104 18.8766 44.1223 18.8058 44.1603 18.7383L42.4171 17.7577C42.1671 18.2022 42.0734 18.6914 42.1262 19.1927L44.1152 18.9833ZM44.1367 18.778C44.2037 18.6708 44.2489 18.6529 44.2601 18.6485L43.5173 16.7915C43.0485 16.9791 42.6937 17.3132 42.4407 17.718L44.1367 18.778ZM44.2895 18.6362C44.34 18.6141 44.3946 18.6035 44.4878 18.6242L44.9216 16.6718C44.4389 16.5645 43.9495 16.6019 43.4879 16.8038L44.2895 18.6362ZM44.4987 18.6265C44.5036 18.6276 44.5833 18.6408 44.7207 18.824L46.3207 17.624C45.9781 17.1672 45.5138 16.7964 44.9107 16.6694L44.4987 18.6265ZM44.7398 18.8487C44.7929 18.915 44.8597 19.0239 44.9282 19.1954L46.7852 18.4526C46.6618 18.1441 46.5046 17.853 46.3016 17.5993L44.7398 18.8487ZM44.9505 19.2469C45.0364 19.4309 45.1141 19.6422 45.1812 19.8836L47.1082 19.3484C47.0153 19.0138 46.901 18.6971 46.7629 18.4011L44.9505 19.2469ZM45.1854 19.8982C45.2639 20.1651 45.3425 20.4402 45.4212 20.7236L47.3482 20.1884C47.267 19.8958 47.1856 19.6109 47.1041 19.3338L45.1854 19.8982ZM45.4212 20.7236C45.5025 21.0162 45.5839 21.3011 45.6654 21.5782L47.5841 21.0138C47.5056 20.7469 47.427 20.4718 47.3482 20.1884L45.4212 20.7236ZM45.6642 21.5741C45.8411 22.1855 45.9879 22.675 46.1038 23.0392L48.0096 22.4328C47.9015 22.093 47.7603 21.6225 47.5853 21.0179L45.6642 21.5741ZM46.1222 23.092C46.2465 23.4182 46.3712 23.761 46.4962 24.1205L48.3852 23.4635C48.2543 23.087 48.1229 22.7258 47.9912 22.38L46.1222 23.092ZM48.3974 24.0832C48.5071 23.7228 48.6164 23.3792 48.7254 23.0522L46.828 22.4198C46.713 22.7648 46.5984 23.1252 46.484 23.5008L48.3974 24.0832ZM48.7165 23.0777C48.8556 22.6954 49.0147 22.1911 49.1933 21.5741L47.2722 21.0179C47.0988 21.6169 46.9539 22.0726 46.8369 22.3943L48.7165 23.0777ZM49.1814 21.6122C49.2454 21.4202 49.3174 21.2042 49.3974 20.9642L47.5 20.3318C47.42 20.5718 47.348 20.7878 47.284 20.9798L49.1814 21.6122ZM49.385 20.9991C49.4763 20.7558 49.5666 20.5302 49.6559 20.3219L47.8176 19.5341C47.7148 19.7738 47.6132 20.0282 47.5124 20.2969L49.385 20.9991ZM49.6311 20.3752C49.7262 20.1852 49.8256 20.0134 49.9288 19.8587L48.2647 18.7493C48.1118 18.9786 47.9713 19.2228 47.8423 19.4808L49.6311 20.3752ZM49.9189 19.8732C50.0092 19.7428 50.0643 19.7072 50.0672 19.7055L49.0382 17.9905C48.7211 18.1808 48.4723 18.4492 48.2745 18.7348L49.9189 19.8732ZM50.1161 19.6742C50.1613 19.6434 50.1939 19.6264 50.2138 19.6177C50.2334 19.609 50.2381 19.6095 50.2291 19.611C50.2192 19.6128 50.1994 19.6147 50.1731 19.6116C50.1466 19.6084 50.1235 19.6013 50.1066 19.5938L50.9189 17.7662C50.2071 17.4499 49.515 17.6634 48.9894 18.0218L50.1161 19.6742ZM50.1503 19.612C50.2329 19.6441 50.3336 19.7098 50.446 19.8655L52.0674 18.6945C51.7638 18.2742 51.3686 17.9399 50.8752 17.748L50.1503 19.612ZM50.446 19.8655C50.5946 20.0712 50.7309 20.3259 50.8484 20.6391L52.721 19.9369C52.5505 19.4821 52.3348 19.0648 52.0674 18.6945L50.446 19.8655ZM50.8676 20.6867C51.0172 21.0306 51.1319 21.3334 51.2151 21.5971L53.1223 20.9949C53.0136 20.6506 52.8723 20.2814 52.7018 19.8893L50.8676 20.6867ZM51.2109 21.5833C51.3089 21.9102 51.4 22.2002 51.484 22.4522L53.3814 21.8198C53.3054 21.5918 53.2205 21.3218 53.1265 21.0087L51.2109 21.5833ZM51.491 22.4723C51.569 22.6908 51.6386 22.892 51.7 23.0762L53.5974 22.4438C53.5308 22.244 53.4564 22.0292 53.3745 21.7997L51.491 22.4723ZM51.7 23.0762C51.7588 23.2525 51.8093 23.4188 51.852 23.5751L53.7815 23.0489C53.7281 22.8532 53.6666 22.6515 53.5974 22.4438L51.7 23.0762ZM51.8769 23.6537C51.9376 23.8206 51.9987 23.9961 52.06 24.1802L53.9574 23.5478C53.8908 23.3479 53.8238 23.1554 53.7565 22.9703L51.8769 23.6537ZM53.9574 24.1802C54.0266 23.9725 54.0881 23.7708 54.1415 23.5751L52.212 23.0489C52.1693 23.2052 52.1188 23.3715 52.06 23.5478L53.9574 24.1802ZM54.1165 23.6537C54.1838 23.4686 54.2508 23.2761 54.3174 23.0762L52.42 22.4438C52.3587 22.6279 52.2976 22.8034 52.2369 22.9703L54.1165 23.6537ZM54.3174 23.0762C54.3788 22.892 54.4484 22.6908 54.5265 22.4723L52.643 21.7997C52.561 22.0292 52.4866 22.244 52.42 22.4438L54.3174 23.0762ZM54.5334 22.4522C54.6174 22.2002 54.7085 21.9102 54.8065 21.5833L52.8909 21.0087C52.7969 21.3218 52.712 21.5918 52.636 21.8198L54.5334 22.4522ZM54.8045 21.5901C54.8766 21.3556 54.9464 21.0931 55.0141 20.805L53.0673 20.347C53.0071 20.6029 52.9488 20.8204 52.8929 21.0019L54.8045 21.5901ZM55.0001 20.8582C55.0801 20.5862 55.1601 20.3142 55.2401 20.0422L53.3214 19.4778C53.2414 19.7498 53.1614 20.0218 53.0814 20.2938L55.0001 20.8582ZM55.2442 20.0276C55.3217 19.7488 55.3987 19.487 55.4752 19.2423L53.5662 18.6457C53.4827 18.913 53.3997 19.1952 53.3172 19.4924L55.2442 20.0276ZM55.457 19.2951C55.5357 19.0853 55.611 18.9355 55.6764 18.8329L53.9891 17.7591C53.8304 18.0085 53.6977 18.2907 53.5844 18.5929L55.457 19.2951ZM55.6764 18.8329C55.6972 18.8001 55.729 18.7649 55.7926 18.7278L54.7848 17.0002C54.4644 17.1871 54.1922 17.4399 53.9891 17.7591L55.6764 18.8329ZM55.8434 18.696C55.9083 18.6528 55.9459 18.6466 55.9654 18.6451L55.812 16.6509C55.4155 16.6814 55.0531 16.8192 54.734 17.032L55.8434 18.696ZM56.0408 18.6364C56.0663 18.6324 56.0984 18.6321 56.1537 18.6533L56.8717 16.7867C56.511 16.6479 56.1271 16.5996 55.7367 16.6596L56.0408 18.6364ZM56.1764 18.6617C56.1722 18.6602 56.1742 18.6596 56.1845 18.6682C56.1963 18.678 56.222 18.7027 56.2567 18.7547L57.9208 17.6453C57.6674 17.2653 57.3157 16.9449 56.8491 16.7783L56.1764 18.6617ZM62.2943 18.152L62.7242 19.0549L62.7306 19.0518L62.2943 18.152ZM63.9503 17.6L63.7594 16.6184L63.7594 16.6184L63.9503 17.6ZM65.6543 17.528L65.5407 18.5215L65.5439 18.5219L65.6543 17.528ZM67.3103 17.984L66.8965 18.8944L66.9066 18.8989L67.3103 17.984ZM68.7983 18.992L69.5054 18.2849L69.499 18.2785L69.4924 18.2722L68.7983 18.992ZM69.7583 20.336L68.8692 20.794L68.8752 20.8052L69.7583 20.336ZM70.3583 21.848L69.39 22.0979L69.3959 22.1207L69.4029 22.1433L70.3583 21.848ZM70.4783 24.512L71.4561 24.7215L71.4561 24.7215L70.4783 24.512ZM69.4943 27.008L70.3379 27.5449L70.3442 27.5351L70.3502 27.5251L69.4943 27.008ZM68.6543 27.968L69.3019 28.7299L69.3051 28.7273L68.6543 27.968ZM67.6223 28.64L68.0452 29.5462L68.0537 29.5421L67.6223 28.64ZM66.0623 29.096L65.9209 28.1061L65.9071 28.108L65.8933 28.1104L66.0623 29.096ZM64.4303 29.168L64.5208 28.1721L64.5005 28.1703L64.4802 28.1692L64.4303 29.168ZM61.8863 28.448L61.3718 29.3055L61.3801 29.3104L61.8863 28.448ZM60.1343 26.792L59.2931 27.3328L59.2976 27.3398L59.3022 27.3467L60.1343 26.792ZM59.2703 24.512L58.2811 24.6585L58.2826 24.669L58.2844 24.6794L59.2703 24.512ZM59.4383 21.872L60.4042 22.1307L60.4045 22.1297L59.4383 21.872ZM60.5423 19.544L59.7674 18.9119L59.7655 18.9142L60.5423 19.544ZM63.0143 21.368L63.6966 22.0991L63.6982 22.0975L63.0143 21.368ZM62.2223 23.264L63.2182 23.3545L63.2185 23.3506L62.2223 23.264ZM62.2943 24.344L61.3171 24.5564L61.3227 24.5819L61.3295 24.6071L62.2943 24.344ZM62.7263 25.304L61.8942 25.8587L61.8942 25.8587L62.7263 25.304ZM63.5903 25.904L63.2313 26.8373L63.2313 26.8373L63.5903 25.904ZM64.8863 26.192L64.815 27.1895L64.8239 27.1901L64.8863 26.192ZM66.2303 25.784L66.851 26.568L66.8608 26.5603L66.8705 26.5522L66.2303 25.784ZM67.0943 24.608L66.1818 24.1989L66.1758 24.2122L66.1703 24.2256L67.0943 24.608ZM67.3823 23.096L66.3827 23.1254L66.3827 23.1254L67.3823 23.096ZM66.9503 21.608L66.0928 22.1225L66.0955 22.127L66.9503 21.608ZM66.1343 20.912L65.7043 21.8149L65.7297 21.8269L65.7556 21.8375L66.1343 20.912ZM65.0543 20.672L65.0108 21.6711L65.0326 21.672H65.0543V20.672ZM63.9503 20.84L64.2414 21.7967L64.2602 21.791L64.2788 21.7845L63.9503 20.84ZM62.7306 19.0518C63.1806 18.8336 63.6501 18.6771 64.1412 18.5816L63.7594 16.6184C63.0984 16.7469 62.4639 16.9584 61.858 17.2522L62.7306 19.0518ZM64.1412 18.5816C64.621 18.4883 65.0863 18.4696 65.5407 18.5215L65.7678 16.5345C65.1022 16.4584 64.4315 16.4877 63.7594 16.6184L64.1412 18.5816ZM65.5439 18.5219C66.0149 18.5742 66.4645 18.698 66.8965 18.8944L67.7241 17.0736C67.1001 16.79 66.4457 16.6098 65.7647 16.5341L65.5439 18.5219ZM66.9066 18.8989C67.3381 19.0893 67.7368 19.3576 68.1041 19.7118L69.4924 18.2722C68.9638 17.7624 68.3704 17.3587 67.7139 17.0691L66.9066 18.8989ZM68.0912 19.6991C68.3765 19.9845 68.6381 20.3452 68.8693 20.794L70.6473 19.878C70.3345 19.2708 69.956 18.7355 69.5054 18.2849L68.0912 19.6991ZM68.8752 20.8052C69.115 21.2566 69.284 21.6873 69.39 22.0979L71.3266 21.5981C71.1765 21.0167 70.9456 20.4394 70.6414 19.8668L68.8752 20.8052ZM69.4029 22.1433C69.6246 22.8606 69.6564 23.5748 69.5005 24.3025L71.4561 24.7215C71.6842 23.6572 71.636 22.5954 71.3137 21.5527L69.4029 22.1433ZM69.5005 24.3025C69.3312 25.0922 69.0437 25.82 68.6384 26.4909L70.3502 27.5251C70.8728 26.66 71.2413 25.7238 71.4561 24.7215L69.5005 24.3025ZM68.6506 26.4711C68.4827 26.735 68.2691 26.9811 68.0035 27.2087L69.3051 28.7273C69.7114 28.3789 70.0579 27.985 70.3379 27.5449L68.6506 26.4711ZM68.0066 27.2061C67.7504 27.4239 67.4787 27.6002 67.1908 27.7379L68.0537 29.5421C68.5018 29.3278 68.9182 29.0561 69.3019 28.7299L68.0066 27.2061ZM67.1994 27.7338C66.8144 27.9135 66.39 28.039 65.9209 28.1061L66.2037 30.0859C66.8545 29.993 67.4701 29.8145 68.0452 29.5462L67.1994 27.7338ZM65.8933 28.1104C65.4129 28.1927 64.9563 28.2117 64.5208 28.1721L64.3397 30.1639C64.9603 30.2203 65.5917 30.1913 66.2312 30.0816L65.8933 28.1104ZM64.4802 28.1692C63.6605 28.1283 62.9729 27.9262 62.3925 27.5856L61.3801 29.3104C62.2717 29.8338 63.2801 30.1117 64.3803 30.1668L64.4802 28.1692ZM62.4008 27.5905C61.8026 27.2316 61.3289 26.7812 60.9663 26.2373L59.3022 27.3467C59.8356 28.1468 60.53 28.8004 61.3718 29.3055L62.4008 27.5905ZM60.9755 26.2512C60.6218 25.7011 60.3793 25.07 60.2562 24.3446L58.2844 24.6794C58.4492 25.65 58.7827 26.5389 59.2931 27.3328L60.9755 26.2512ZM60.2595 24.3655C60.1527 23.645 60.1974 22.903 60.4042 22.1307L58.4723 21.6133C58.1992 22.633 58.1318 23.651 58.2811 24.6585L60.2595 24.3655ZM60.4045 22.1297C60.6348 21.2662 60.9502 20.6286 61.319 20.1738L59.7655 18.9142C59.1743 19.6434 58.7538 20.5578 58.472 21.6143L60.4045 22.1297ZM61.3171 20.1761C61.7248 19.6764 62.193 19.3078 62.7242 19.0549L61.8643 17.2491C61.0515 17.6362 60.3518 18.1956 59.7674 18.9119L61.3171 20.1761ZM62.332 20.6369C61.9701 20.9747 61.7049 21.3872 61.5278 21.852L63.3968 22.564C63.4757 22.3568 63.5785 22.2093 63.6966 22.0991L62.332 20.6369ZM61.5278 21.852C61.3659 22.2769 61.2658 22.7197 61.226 23.1774L63.2185 23.3506C63.2427 23.0723 63.3026 22.8111 63.3968 22.564L61.5278 21.852ZM61.2264 23.1735C61.1846 23.6333 61.2169 24.0955 61.3171 24.5564L63.2715 24.1316C63.2117 23.8565 63.196 23.5987 63.2182 23.3545L61.2264 23.1735ZM61.3295 24.6071C61.4523 25.0572 61.6395 25.4765 61.8942 25.8587L63.5583 24.7493C63.4291 24.5555 63.3283 24.3348 63.259 24.0809L61.3295 24.6071ZM61.8942 25.8587C62.2161 26.3414 62.7205 26.6409 63.2313 26.8373L63.9493 24.9707C63.6281 24.8471 63.5565 24.7466 63.5583 24.7493L61.8942 25.8587ZM63.2313 26.8373C63.7402 27.0331 64.2693 27.1505 64.815 27.1895L64.9575 25.1945C64.6073 25.1695 64.2723 25.0949 63.9493 24.9707L63.2313 26.8373ZM64.8239 27.1901C65.5694 27.2366 66.2637 27.033 66.851 26.568L65.6096 25C65.4289 25.143 65.2272 25.2114 64.9487 25.1939L64.8239 27.1901ZM66.8705 26.5522C67.3795 26.128 67.7646 25.6034 68.0183 24.9904L66.1703 24.2256C66.0399 24.5406 65.849 24.8 65.5901 25.0158L66.8705 26.5522ZM68.0068 25.0171C68.2808 24.4058 68.402 23.7506 68.3818 23.0666L66.3827 23.1254C66.3946 23.5294 66.3238 23.8822 66.1818 24.1989L68.0068 25.0171ZM68.3818 23.0666C68.361 22.3566 68.1704 21.6907 67.8051 21.089L66.0955 22.127C66.2742 22.4213 66.3716 22.7474 66.3827 23.1254L68.3818 23.0666ZM67.8078 21.0935C67.5024 20.5846 67.0606 20.2105 66.5129 19.9865L65.7556 21.8375C65.912 21.9015 66.0141 21.9914 66.0928 22.1225L67.8078 21.0935ZM66.5642 20.0091C66.0896 19.7831 65.5822 19.672 65.0543 19.672V21.672C65.2944 21.672 65.507 21.7209 65.7043 21.8149L66.5642 20.0091ZM65.0977 19.6729C64.5962 19.6511 64.1022 19.7284 63.6218 19.8955L64.2788 21.7845C64.5344 21.6956 64.7763 21.6609 65.0108 21.6711L65.0977 19.6729ZM63.6591 19.8833C63.1588 20.0356 62.7086 20.2839 62.3303 20.6385L63.6982 22.0975C63.832 21.9721 64.0057 21.8684 64.2414 21.7967L63.6591 19.8833ZM75.6068 18.152L76.0367 19.0549L76.0431 19.0518L75.6068 18.152ZM77.2628 17.6L77.0719 16.6184L77.0719 16.6184L77.2628 17.6ZM78.9668 17.528L78.8532 18.5215L78.8564 18.5219L78.9668 17.528ZM80.6228 17.984L80.209 18.8944L80.2191 18.8989L80.6228 17.984ZM82.1108 18.992L82.8179 18.2849L82.8115 18.2785L82.8049 18.2722L82.1108 18.992ZM83.0708 20.336L82.1817 20.794L82.1877 20.8052L83.0708 20.336ZM83.6708 21.848L82.7025 22.0979L82.7084 22.1207L82.7154 22.1433L83.6708 21.848ZM83.7908 24.512L84.7686 24.7215L84.7686 24.7215L83.7908 24.512ZM82.8068 27.008L83.6504 27.5449L83.6567 27.5351L83.6627 27.5251L82.8068 27.008ZM81.9668 27.968L82.6144 28.7299L82.6176 28.7273L81.9668 27.968ZM80.9348 28.64L81.3577 29.5462L81.3662 29.5421L80.9348 28.64ZM79.3748 29.096L79.2334 28.1061L79.2196 28.108L79.2058 28.1104L79.3748 29.096ZM77.7428 29.168L77.8333 28.1721L77.813 28.1703L77.7927 28.1692L77.7428 29.168ZM75.1988 28.448L74.6843 29.3055L74.6926 29.3104L75.1988 28.448ZM73.4468 26.792L72.6056 27.3328L72.6101 27.3398L72.6147 27.3467L73.4468 26.792ZM72.5828 24.512L71.5936 24.6585L71.5951 24.669L71.5969 24.6794L72.5828 24.512ZM72.7508 21.872L73.7167 22.1307L73.717 22.1297L72.7508 21.872ZM73.8548 19.544L73.0799 18.9119L73.078 18.9142L73.8548 19.544ZM76.3268 21.368L77.0091 22.0991L77.0107 22.0975L76.3268 21.368ZM75.5348 23.264L76.5307 23.3545L76.531 23.3506L75.5348 23.264ZM75.6068 24.344L74.6296 24.5564L74.6352 24.5819L74.642 24.6071L75.6068 24.344ZM76.0388 25.304L75.2067 25.8587L75.2067 25.8587L76.0388 25.304ZM76.9028 25.904L76.5438 26.8373L76.5438 26.8373L76.9028 25.904ZM78.1988 26.192L78.1275 27.1895L78.1364 27.1901L78.1988 26.192ZM79.5428 25.784L80.1635 26.568L80.1733 26.5603L80.183 26.5522L79.5428 25.784ZM80.4068 24.608L79.4943 24.1989L79.4883 24.2122L79.4828 24.2256L80.4068 24.608ZM80.6948 23.096L79.6952 23.1254L79.6952 23.1254L80.6948 23.096ZM80.2628 21.608L79.4053 22.1225L79.408 22.127L80.2628 21.608ZM79.4468 20.912L79.0168 21.8149L79.0422 21.8269L79.0681 21.8375L79.4468 20.912ZM78.3668 20.672L78.3233 21.6711L78.3451 21.672H78.3668V20.672ZM77.2628 20.84L77.5539 21.7967L77.5727 21.791L77.5913 21.7845L77.2628 20.84ZM76.0431 19.0518C76.4931 18.8336 76.9626 18.6771 77.4537 18.5816L77.0719 16.6184C76.4109 16.7469 75.7764 16.9584 75.1705 17.2522L76.0431 19.0518ZM77.4537 18.5816C77.9335 18.4883 78.3988 18.4696 78.8532 18.5215L79.0803 16.5345C78.4147 16.4584 77.744 16.4877 77.0719 16.6184L77.4537 18.5816ZM78.8564 18.5219C79.3274 18.5742 79.777 18.698 80.209 18.8944L81.0366 17.0736C80.4126 16.79 79.7582 16.6098 79.0772 16.5341L78.8564 18.5219ZM80.2191 18.8989C80.6506 19.0893 81.0493 19.3576 81.4166 19.7118L82.8049 18.2722C82.2763 17.7624 81.6829 17.3587 81.0264 17.0691L80.2191 18.8989ZM81.4037 19.6991C81.689 19.9845 81.9506 20.3452 82.1818 20.794L83.9598 19.878C83.647 19.2708 83.2685 18.7355 82.8179 18.2849L81.4037 19.6991ZM82.1877 20.8052C82.4275 21.2566 82.5965 21.6873 82.7025 22.0979L84.6391 21.5981C84.489 21.0167 84.2581 20.4394 83.9539 19.8668L82.1877 20.8052ZM82.7154 22.1433C82.9371 22.8606 82.9689 23.5748 82.813 24.3025L84.7686 24.7215C84.9967 23.6572 84.9485 22.5954 84.6262 21.5527L82.7154 22.1433ZM82.813 24.3025C82.6437 25.0922 82.3562 25.82 81.9509 26.4909L83.6627 27.5251C84.1853 26.66 84.5538 25.7238 84.7686 24.7215L82.813 24.3025ZM81.9631 26.4711C81.7952 26.735 81.5816 26.9811 81.316 27.2087L82.6176 28.7273C83.0239 28.3789 83.3704 27.985 83.6504 27.5449L81.9631 26.4711ZM81.3191 27.2061C81.0629 27.4239 80.7912 27.6002 80.5033 27.7379L81.3662 29.5421C81.8143 29.3278 82.2307 29.0561 82.6144 28.7299L81.3191 27.2061ZM80.5119 27.7338C80.1269 27.9135 79.7025 28.039 79.2334 28.1061L79.5162 30.0859C80.167 29.993 80.7826 29.8145 81.3577 29.5462L80.5119 27.7338ZM79.2058 28.1104C78.7254 28.1927 78.2688 28.2117 77.8333 28.1721L77.6522 30.1639C78.2728 30.2203 78.9042 30.1913 79.5437 30.0816L79.2058 28.1104ZM77.7927 28.1692C76.973 28.1283 76.2854 27.9262 75.705 27.5856L74.6926 29.3104C75.5842 29.8338 76.5926 30.1117 77.6928 30.1668L77.7927 28.1692ZM75.7133 27.5905C75.1151 27.2316 74.6414 26.7812 74.2788 26.2373L72.6147 27.3467C73.1481 28.1468 73.8425 28.8004 74.6843 29.3055L75.7133 27.5905ZM74.288 26.2512C73.9343 25.7011 73.6918 25.07 73.5687 24.3446L71.5969 24.6794C71.7617 25.65 72.0952 26.5389 72.6056 27.3328L74.288 26.2512ZM73.572 24.3655C73.4652 23.645 73.5099 22.903 73.7167 22.1307L71.7848 21.6133C71.5117 22.633 71.4443 23.651 71.5936 24.6585L73.572 24.3655ZM73.717 22.1297C73.9473 21.2662 74.2627 20.6286 74.6315 20.1738L73.078 18.9142C72.4868 19.6434 72.0663 20.5578 71.7845 21.6143L73.717 22.1297ZM74.6296 20.1761C75.0373 19.6764 75.5055 19.3078 76.0367 19.0549L75.1768 17.2491C74.364 17.6362 73.6643 18.1956 73.0799 18.9119L74.6296 20.1761ZM75.6445 20.6369C75.2826 20.9747 75.0174 21.3872 74.8403 21.852L76.7093 22.564C76.7882 22.3568 76.891 22.2093 77.0091 22.0991L75.6445 20.6369ZM74.8403 21.852C74.6784 22.2769 74.5783 22.7197 74.5385 23.1774L76.531 23.3506C76.5552 23.0723 76.6151 22.8111 76.7093 22.564L74.8403 21.852ZM74.5389 23.1735C74.4971 23.6333 74.5294 24.0955 74.6296 24.5564L76.584 24.1316C76.5242 23.8565 76.5085 23.5987 76.5307 23.3545L74.5389 23.1735ZM74.642 24.6071C74.7648 25.0572 74.952 25.4765 75.2067 25.8587L76.8708 24.7493C76.7416 24.5555 76.6408 24.3348 76.5715 24.0809L74.642 24.6071ZM75.2067 25.8587C75.5286 26.3414 76.033 26.6409 76.5438 26.8373L77.2618 24.9707C76.9406 24.8471 76.869 24.7466 76.8708 24.7493L75.2067 25.8587ZM76.5438 26.8373C77.0527 27.0331 77.5818 27.1505 78.1275 27.1895L78.27 25.1945C77.9198 25.1695 77.5848 25.0949 77.2618 24.9707L76.5438 26.8373ZM78.1364 27.1901C78.8819 27.2366 79.5762 27.033 80.1635 26.568L78.9221 25C78.7414 25.143 78.5397 25.2114 78.2612 25.1939L78.1364 27.1901ZM80.183 26.5522C80.692 26.128 81.0771 25.6034 81.3308 24.9904L79.4828 24.2256C79.3524 24.5406 79.1615 24.8 78.9026 25.0158L80.183 26.5522ZM81.3193 25.0171C81.5933 24.4058 81.7145 23.7506 81.6943 23.0666L79.6952 23.1254C79.7071 23.5294 79.6363 23.8822 79.4943 24.1989L81.3193 25.0171ZM81.6943 23.0666C81.6735 22.3566 81.4829 21.6907 81.1176 21.089L79.408 22.127C79.5867 22.4213 79.6841 22.7474 79.6952 23.1254L81.6943 23.0666ZM81.1203 21.0935C80.8149 20.5846 80.3731 20.2105 79.8254 19.9865L79.0681 21.8375C79.2245 21.9015 79.3266 21.9914 79.4053 22.1225L81.1203 21.0935ZM79.8767 20.0091C79.4021 19.7831 78.8947 19.672 78.3668 19.672V21.672C78.6069 21.672 78.8195 21.7209 79.0168 21.8149L79.8767 20.0091ZM78.4102 19.6729C77.9087 19.6511 77.4147 19.7284 76.9343 19.8955L77.5913 21.7845C77.8469 21.6956 78.0888 21.6609 78.3233 21.6711L78.4102 19.6729ZM76.9716 19.8833C76.4713 20.0356 76.0211 20.2839 75.6428 20.6385L77.0107 22.0975C77.1445 21.9721 77.3182 21.8684 77.5539 21.7967L76.9716 19.8833Z" fill="#2B3445" mask="url(#path-3-outside-1_5_227)"/>
<g clip-path="url(#clip0_5_227)">
<path d="M33.6258 19.9813C33.4191 19.9813 33.2516 20.1489 33.2516 20.3555V33.8774C33.2516 34.0838 33.0837 34.2516 32.8774 34.2516H11.1226C10.9162 34.2516 10.7484 34.0837 10.7484 33.8774V30.3347C10.7484 30.1281 10.5809 29.9605 10.3742 29.9605C10.1676 29.9605 10 30.1281 10 30.3347V33.8774C9.99998 34.4964 10.5036 35 11.1226 35H32.8773C33.4964 35 34 34.4964 34 33.8774V20.3555C34 20.1489 33.8325 19.9813 33.6258 19.9813Z" fill="#2B3445"/>
<path d="M32.8773 11H11.1227C10.5036 11 10 11.5036 10 12.1227V13.9522V28.4387C10 28.6453 10.1675 28.8129 10.3742 28.8129C10.5809 28.8129 10.7484 28.6453 10.7484 28.4387V14.3264H33.2515V18.659C33.2515 18.8657 33.419 19.0332 33.6257 19.0332C33.8325 19.0332 34 18.8657 34 18.659V13.9522V12.1227C34 11.5036 33.4963 11 32.8773 11ZM33.2515 13.578H10.7485V12.1227C10.7485 11.9163 10.9163 11.7485 11.1227 11.7485H32.8773C33.0837 11.7485 33.2515 11.9163 33.2515 12.1227V13.578Z" fill="#2B3445"/>
<path d="M31.5302 12.4968H25.7422C25.5355 12.4968 25.368 12.6644 25.368 12.871C25.368 13.0777 25.5355 13.2452 25.7422 13.2452H31.5302C31.7369 13.2452 31.9044 13.0777 31.9044 12.871C31.9044 12.6644 31.7369 12.4968 31.5302 12.4968Z" fill="#2B3445"/>
<path d="M24.5447 12.4968H23.1476C22.9409 12.4968 22.7734 12.6644 22.7734 12.871C22.7734 13.0777 22.9409 13.2452 23.1476 13.2452H24.5447C24.7514 13.2452 24.9189 13.0777 24.9189 12.871C24.9189 12.6644 24.7514 12.4968 24.5447 12.4968Z" fill="#2B3445"/>
<path d="M21.5897 23.1588L20.2038 17.6152V16.2641C20.2038 16.0574 20.0362 15.8899 19.8296 15.8899H15.0395C14.8328 15.8899 14.6653 16.0574 14.6653 16.2641V17.6152L13.2794 23.1588C13.2514 23.2705 13.2765 23.389 13.3474 23.4798C13.4184 23.5707 13.5272 23.6238 13.6424 23.6238H17.4345H21.2266C21.3419 23.6238 21.4506 23.5706 21.5216 23.4798C21.5926 23.389 21.6177 23.2705 21.5897 23.1588ZM15.4137 16.6383H19.4553V17.287H15.4137V16.6383ZM17.4345 22.8753H14.1217L15.3317 18.0354H15.9573L15.5746 19.5662C15.5245 19.7667 15.6464 19.9698 15.8469 20.02C15.8773 20.0276 15.9079 20.0313 15.938 20.0313C16.1057 20.0313 16.2582 19.9178 16.3008 19.7478L16.7289 18.0354H17.0604V20.0561C17.0604 20.2628 17.2279 20.4303 17.4346 20.4303C17.6412 20.4303 17.8088 20.2628 17.8088 20.0561V18.0354H18.1403L18.5684 19.7478C18.6109 19.9178 18.7635 20.0313 18.9312 20.0313C18.9612 20.0313 18.9917 20.0276 19.0222 20.02C19.2228 19.9699 19.3446 19.7667 19.2945 19.5662L18.9118 18.0354H19.5374L20.7474 22.8753H17.4345Z" fill="#2B3445"/>
<path d="M31.6695 29.0783C31.6079 28.9468 31.4758 28.8628 31.3305 28.8628H29.4345C29.3255 28.8628 29.222 28.9103 29.1509 28.9929L28.711 29.5037V28.7455C28.711 28.7454 28.711 28.7453 28.711 28.7452V25.8442C28.711 25.6375 28.5435 25.47 28.3368 25.47H23.1476C22.9409 25.47 22.7734 25.6375 22.7734 25.8442V28.7452C22.7734 28.7453 22.7734 28.7454 22.7734 28.7455V32.8296C22.7734 33.0363 22.9409 33.2038 23.1476 33.2038H25.0436C25.2281 33.2038 25.3851 33.0693 25.4134 32.8871L25.7137 30.9567L25.97 32.879C25.9948 33.0649 26.1534 33.2038 26.341 33.2038H28.3368C28.4761 33.2038 28.5974 33.142 28.6618 33.0292C28.678 33.0154 31.6181 29.4766 31.6181 29.4766C31.711 29.3651 31.7311 29.2098 31.6695 29.0783ZM23.5218 26.2183H24.0296L23.5218 27.2V26.2183ZM25.368 28.3099L24.7231 32.4554H23.5218V28.8292L24.8722 26.2184H25.3679V28.3099H25.368ZM27.9626 32.4553H26.6686L26.1165 28.314V26.2183H26.6122L27.9626 28.8292V32.4553ZM27.9626 27.2L27.4548 26.2183H27.9626V27.2ZM28.711 31.7959V30.6359C28.7332 30.6195 29.6061 29.6112 29.6061 29.6112H30.5315L28.711 31.7959Z" fill="#2B3445"/>
<path d="M21.6757 32.4553H20.6528V30.1351C20.6528 29.1034 19.8135 28.264 18.7817 28.264H16.0873C15.0556 28.264 14.2162 29.1034 14.2162 30.1351V32.4553H13.1934C12.9867 32.4553 12.8192 32.6229 12.8192 32.8295C12.8192 33.0362 12.9867 33.2037 13.1934 33.2037H21.6757C21.8823 33.2037 22.0499 33.0362 22.0499 32.8295C22.0499 32.6229 21.8823 32.4553 21.6757 32.4553ZM19.9044 32.4553H14.9647V30.1351C14.9647 29.5161 15.4683 29.0125 16.0873 29.0125H18.7817C19.4008 29.0125 19.9044 29.5161 19.9044 30.1351V32.4553Z" fill="#2B3445"/>
<path d="M28.583 18.7015C28.4113 17.6186 27.4715 16.788 26.341 16.788C25.2105 16.788 24.2706 17.6186 24.0989 18.7015C23.5732 18.7947 23.1725 19.2546 23.1725 19.8067V22.501C23.1725 23.1201 23.6762 23.6237 24.2952 23.6237H28.3867C29.0057 23.6237 29.5093 23.1201 29.5093 22.501V19.8067C29.5094 19.2546 29.1087 18.7947 28.583 18.7015ZM26.341 17.5364C27.051 17.5364 27.6489 18.0252 27.8161 18.684H24.8658C25.0331 18.0252 25.631 17.5364 26.341 17.5364ZM28.7609 22.5011C28.7609 22.7075 28.5931 22.8753 28.3867 22.8753H24.2952C24.0889 22.8753 23.921 22.7074 23.921 22.5011V21.5635C24.0381 21.6051 24.1641 21.6279 24.2952 21.6279H25.9668V21.9522C25.9668 22.1589 26.1342 22.3264 26.341 22.3264C26.5477 22.3264 26.7152 22.1589 26.7152 21.9522V21.6279H28.3867C28.5178 21.6279 28.6438 21.605 28.7609 21.5635V22.5011H28.7609ZM28.7609 20.5052C28.7609 20.7116 28.5931 20.8794 28.3867 20.8794H24.2952C24.0889 20.8794 23.921 20.7116 23.921 20.5052V19.8067C23.921 19.6003 24.0889 19.4325 24.2952 19.4325H28.3867C28.5931 19.4325 28.7609 19.6004 28.7609 19.8067V20.5052Z" fill="#2B3445"/>
</g>
<rect x="10.5" y="11.5" width="23" height="23" stroke="#2B3445"/>
<defs>
<clipPath id="clip0_5_227">
<rect x="10" y="11" width="24" height="24" fill="white"/>
</clipPath>
</defs>
</svg>
