<svg width="92" height="47" viewBox="0 0 92 47" fill="none" xmlns="http://www.w3.org/2000/svg">
<path d="M16.0396 2.47372C19.443 0.50876 23.6362 0.50876 27.0396 2.47372L36.5792 7.98141C39.9826 9.94639 42.0792 13.5778 42.0792 17.5077V28.5231C42.0792 32.453 39.9826 36.0844 36.5792 38.0494L27.0396 43.5571C23.6362 45.522 19.443 45.522 16.0396 43.5571L6.50001 38.0494C3.09659 36.0844 1 32.453 1 28.5231V17.5077C1 13.5778 3.09659 9.94639 6.5 7.98141L16.0396 2.47372Z" stroke="#E91F64" stroke-width="2"/>
<path d="M80.4231 10H46.5769C40.7354 10 36 15.5964 36 22.5C36 29.4036 40.7354 35 46.5769 35H80.4231C86.2645 35 91 29.4036 91 22.5C91 15.5964 86.2645 10 80.4231 10Z" fill="#E91F64" stroke="#E91F64" stroke-width="2"/>
<path d="M57.0887 18.2C57.2327 18.408 57.2807 18.736 57.2327 19.184C57.2007 19.616 57.1207 20.088 56.9927 20.6C56.8647 21.096 56.7127 21.592 56.5367 22.088C56.3607 22.568 56.2167 22.968 56.1047 23.288C55.8327 24.024 55.5927 24.712 55.3847 25.352C55.1767 25.992 54.9287 26.696 54.6407 27.464C54.5447 27.688 54.4487 27.912 54.3527 28.136C54.2727 28.36 54.1687 28.56 54.0407 28.736C53.9287 28.912 53.7847 29.056 53.6087 29.168C53.4487 29.28 53.2487 29.336 53.0087 29.336C52.7367 29.336 52.4967 29.24 52.2887 29.048C52.0967 28.856 51.9287 28.616 51.7847 28.328C51.6567 28.04 51.5447 27.736 51.4487 27.416C51.3527 27.096 51.2727 26.816 51.2087 26.576C51.0007 25.872 50.8167 25.232 50.6567 24.656C50.4967 24.064 50.3527 23.536 50.2247 23.072C50.0807 23.536 49.9367 24.04 49.7927 24.584C49.6487 25.128 49.4647 25.744 49.2407 26.432C49.1767 26.672 49.0967 26.968 49.0007 27.32C48.9047 27.656 48.7847 27.976 48.6407 28.28C48.5127 28.584 48.3447 28.84 48.1367 29.048C47.9447 29.272 47.7127 29.368 47.4407 29.336C47.0567 29.32 46.7207 29.168 46.4327 28.88C46.1607 28.576 45.9207 28.216 45.7127 27.8C45.5207 27.384 45.3527 26.952 45.2087 26.504C45.0647 26.056 44.9447 25.664 44.8487 25.328C44.7207 24.896 44.5687 24.416 44.3927 23.888C44.2167 23.36 44.0407 22.824 43.8647 22.28C43.7047 21.72 43.5527 21.168 43.4087 20.624C43.2647 20.064 43.1687 19.552 43.1207 19.088C43.0887 18.784 43.1447 18.504 43.2887 18.248C43.4487 17.992 43.6487 17.816 43.8887 17.72C44.1447 17.608 44.4167 17.584 44.7047 17.648C45.0087 17.712 45.2807 17.904 45.5207 18.224C45.6487 18.384 45.7607 18.584 45.8567 18.824C45.9687 19.064 46.0647 19.328 46.1447 19.616C46.2247 19.888 46.3047 20.168 46.3847 20.456C46.4647 20.744 46.5447 21.024 46.6247 21.296C46.8007 21.904 46.9447 22.384 47.0567 22.736C47.1847 23.072 47.3127 23.424 47.4407 23.792C47.5527 23.424 47.6647 23.072 47.7767 22.736C47.9047 22.384 48.0567 21.904 48.2327 21.296C48.2967 21.104 48.3687 20.888 48.4487 20.648C48.5447 20.392 48.6407 20.152 48.7367 19.928C48.8487 19.704 48.9687 19.496 49.0967 19.304C49.2407 19.096 49.3927 18.944 49.5527 18.848C49.9047 18.608 50.2247 18.552 50.5127 18.68C50.8007 18.792 51.0487 18.992 51.2567 19.28C51.4647 19.568 51.6407 19.904 51.7847 20.288C51.9447 20.656 52.0727 20.992 52.1687 21.296C52.2647 21.616 52.3527 21.896 52.4327 22.136C52.5127 22.36 52.5847 22.568 52.6487 22.76C52.7127 22.952 52.7687 23.136 52.8167 23.312C52.8807 23.488 52.9447 23.672 53.0087 23.864C53.0727 23.672 53.1287 23.488 53.1767 23.312C53.2407 23.136 53.3047 22.952 53.3687 22.76C53.4327 22.568 53.5047 22.36 53.5847 22.136C53.6647 21.896 53.7527 21.616 53.8487 21.296C53.9127 21.088 53.9767 20.848 54.0407 20.576C54.1207 20.304 54.2007 20.032 54.2807 19.76C54.3607 19.472 54.4407 19.2 54.5207 18.944C54.6167 18.688 54.7207 18.472 54.8327 18.296C54.9447 18.12 55.0967 17.976 55.2887 17.864C55.4807 17.736 55.6807 17.664 55.8887 17.648C56.0967 17.616 56.3047 17.64 56.5127 17.72C56.7367 17.8 56.9287 17.96 57.0887 18.2ZM62.2943 18.152C62.8223 17.896 63.3743 17.712 63.9503 17.6C64.5263 17.488 65.0943 17.464 65.6543 17.528C66.2303 17.592 66.7823 17.744 67.3103 17.984C67.8543 18.224 68.3503 18.56 68.7983 18.992C69.1663 19.36 69.4863 19.808 69.7583 20.336C70.0303 20.848 70.2303 21.352 70.3583 21.848C70.6303 22.728 70.6703 23.616 70.4783 24.512C70.2863 25.408 69.9583 26.24 69.4943 27.008C69.2703 27.36 68.9903 27.68 68.6543 27.968C68.3343 28.24 67.9903 28.464 67.6223 28.64C67.1423 28.864 66.6223 29.016 66.0623 29.096C65.5023 29.192 64.9583 29.216 64.4303 29.168C63.4703 29.12 62.6223 28.88 61.8863 28.448C61.1663 28.016 60.5823 27.464 60.1343 26.792C59.7023 26.12 59.4143 25.36 59.2703 24.512C59.1423 23.648 59.1983 22.768 59.4383 21.872C59.6943 20.912 60.0623 20.136 60.5423 19.544C61.0383 18.936 61.6223 18.472 62.2943 18.152ZM63.0143 21.368C62.7743 21.592 62.5903 21.872 62.4623 22.208C62.3343 22.544 62.2543 22.896 62.2223 23.264C62.1903 23.616 62.2143 23.976 62.2943 24.344C62.3903 24.696 62.5343 25.016 62.7263 25.304C62.8863 25.544 63.1743 25.744 63.5903 25.904C64.0063 26.064 64.4383 26.16 64.8863 26.192C65.3983 26.224 65.8463 26.088 66.2303 25.784C66.6143 25.464 66.9023 25.072 67.0943 24.608C67.3023 24.144 67.3983 23.64 67.3823 23.096C67.3663 22.552 67.2223 22.056 66.9503 21.608C66.7583 21.288 66.4863 21.056 66.1343 20.912C65.7983 20.752 65.4383 20.672 65.0543 20.672C64.6863 20.656 64.3183 20.712 63.9503 20.84C63.5823 20.952 63.2703 21.128 63.0143 21.368ZM75.6068 18.152C76.1348 17.896 76.6868 17.712 77.2628 17.6C77.8388 17.488 78.4068 17.464 78.9668 17.528C79.5428 17.592 80.0948 17.744 80.6228 17.984C81.1668 18.224 81.6628 18.56 82.1108 18.992C82.4788 19.36 82.7988 19.808 83.0708 20.336C83.3428 20.848 83.5428 21.352 83.6708 21.848C83.9428 22.728 83.9828 23.616 83.7908 24.512C83.5988 25.408 83.2708 26.24 82.8068 27.008C82.5828 27.36 82.3028 27.68 81.9668 27.968C81.6468 28.24 81.3028 28.464 80.9348 28.64C80.4548 28.864 79.9348 29.016 79.3748 29.096C78.8148 29.192 78.2708 29.216 77.7428 29.168C76.7828 29.12 75.9348 28.88 75.1988 28.448C74.4788 28.016 73.8948 27.464 73.4468 26.792C73.0148 26.12 72.7268 25.36 72.5828 24.512C72.4548 23.648 72.5108 22.768 72.7508 21.872C73.0068 20.912 73.3748 20.136 73.8548 19.544C74.3508 18.936 74.9348 18.472 75.6068 18.152ZM76.3268 21.368C76.0868 21.592 75.9028 21.872 75.7748 22.208C75.6468 22.544 75.5668 22.896 75.5348 23.264C75.5028 23.616 75.5268 23.976 75.6068 24.344C75.7028 24.696 75.8468 25.016 76.0388 25.304C76.1988 25.544 76.4868 25.744 76.9028 25.904C77.3188 26.064 77.7508 26.16 78.1988 26.192C78.7108 26.224 79.1588 26.088 79.5428 25.784C79.9268 25.464 80.2148 25.072 80.4068 24.608C80.6148 24.144 80.7108 23.64 80.6948 23.096C80.6788 22.552 80.5348 22.056 80.2628 21.608C80.0708 21.288 79.7988 21.056 79.4468 20.912C79.1108 20.752 78.7508 20.672 78.3668 20.672C77.9988 20.656 77.6308 20.712 77.2628 20.84C76.8948 20.952 76.5828 21.128 76.3268 21.368Z" fill="white"/>
<g clip-path="url(#clip0_4_166)">
<path d="M33.6258 19.9813C33.4191 19.9813 33.2516 20.1489 33.2516 20.3555V33.8774C33.2516 34.0838 33.0837 34.2516 32.8774 34.2516H11.1226C10.9162 34.2516 10.7484 34.0837 10.7484 33.8774V30.3347C10.7484 30.1281 10.5809 29.9605 10.3742 29.9605C10.1676 29.9605 10 30.1281 10 30.3347V33.8774C9.99998 34.4964 10.5036 35 11.1226 35H32.8773C33.4964 35 34 34.4964 34 33.8774V20.3555C34 20.1489 33.8325 19.9813 33.6258 19.9813Z" fill="#E91F64"/>
<path d="M32.8773 11H11.1227C10.5036 11 10 11.5036 10 12.1227V13.9522V28.4387C10 28.6453 10.1675 28.8129 10.3742 28.8129C10.5809 28.8129 10.7484 28.6453 10.7484 28.4387V14.3264H33.2515V18.659C33.2515 18.8657 33.419 19.0332 33.6257 19.0332C33.8325 19.0332 34 18.8657 34 18.659V13.9522V12.1227C34 11.5036 33.4963 11 32.8773 11ZM33.2515 13.578H10.7485V12.1227C10.7485 11.9163 10.9163 11.7485 11.1227 11.7485H32.8773C33.0837 11.7485 33.2515 11.9163 33.2515 12.1227V13.578Z" fill="#E91F64"/>
<path d="M31.5302 12.4969H25.7422C25.5355 12.4969 25.368 12.6644 25.368 12.8711C25.368 13.0778 25.5355 13.2453 25.7422 13.2453H31.5302C31.7369 13.2453 31.9044 13.0778 31.9044 12.8711C31.9044 12.6645 31.7369 12.4969 31.5302 12.4969Z" fill="#E91F64"/>
<path d="M24.5447 12.4969H23.1476C22.9409 12.4969 22.7734 12.6644 22.7734 12.8711C22.7734 13.0778 22.9409 13.2453 23.1476 13.2453H24.5447C24.7514 13.2453 24.9189 13.0778 24.9189 12.8711C24.9189 12.6645 24.7514 12.4969 24.5447 12.4969Z" fill="#E91F64"/>
<path d="M21.5897 23.1587L20.2038 17.6151V16.264C20.2038 16.0574 20.0362 15.8898 19.8296 15.8898H15.0395C14.8328 15.8898 14.6653 16.0574 14.6653 16.264V17.6151L13.2794 23.1587C13.2514 23.2704 13.2765 23.3889 13.3474 23.4798C13.4184 23.5707 13.5272 23.6237 13.6424 23.6237H17.4345H21.2266C21.3419 23.6237 21.4506 23.5706 21.5216 23.4798C21.5926 23.3889 21.6177 23.2705 21.5897 23.1587ZM15.4137 16.6382H19.4553V17.2869H15.4137V16.6382ZM17.4345 22.8752H14.1217L15.3317 18.0353H15.9573L15.5746 19.5661C15.5245 19.7666 15.6464 19.9698 15.8469 20.0199C15.8773 20.0276 15.9079 20.0312 15.938 20.0312C16.1057 20.0312 16.2582 19.9177 16.3008 19.7477L16.7289 18.0353H17.0604V20.0561C17.0604 20.2628 17.2279 20.4303 17.4346 20.4303C17.6412 20.4303 17.8088 20.2628 17.8088 20.0561V18.0353H18.1403L18.5684 19.7477C18.6109 19.9178 18.7635 20.0312 18.9312 20.0312C18.9612 20.0312 18.9917 20.0276 19.0222 20.0199C19.2228 19.9698 19.3446 19.7666 19.2945 19.5661L18.9118 18.0353H19.5374L20.7474 22.8752H17.4345Z" fill="#E91F64"/>
<path d="M31.6695 29.0783C31.6079 28.9468 31.4758 28.8628 31.3305 28.8628H29.4345C29.3255 28.8628 29.222 28.9103 29.1509 28.9928L28.711 29.5036V28.7454C28.711 28.7453 28.711 28.7452 28.711 28.7451V25.8441C28.711 25.6374 28.5435 25.4699 28.3368 25.4699H23.1476C22.9409 25.4699 22.7734 25.6374 22.7734 25.8441V28.7451C22.7734 28.7452 22.7734 28.7453 22.7734 28.7454V32.8295C22.7734 33.0362 22.9409 33.2037 23.1476 33.2037H25.0436C25.2281 33.2037 25.3851 33.0693 25.4134 32.887L25.7137 30.9567L25.97 32.879C25.9948 33.0649 26.1534 33.2038 26.341 33.2038H28.3368C28.4761 33.2038 28.5974 33.142 28.6618 33.0291C28.678 33.0154 31.6181 29.4766 31.6181 29.4766C31.711 29.365 31.7311 29.2097 31.6695 29.0783ZM23.5218 26.2183H24.0296L23.5218 27.1999V26.2183ZM25.368 28.3098L24.7231 32.4553H23.5218V28.8292L24.8722 26.2183H25.3679V28.3098H25.368ZM27.9626 32.4553H26.6686L26.1165 28.3139V26.2183H26.6122L27.9626 28.8291V32.4553ZM27.9626 27.1999L27.4548 26.2183H27.9626V27.1999ZM28.711 31.7959V30.6359C28.7332 30.6195 29.6061 29.6112 29.6061 29.6112H30.5315L28.711 31.7959Z" fill="#E91F64"/>
<path d="M21.6757 32.4553H20.6528V30.1351C20.6528 29.1034 19.8135 28.264 18.7817 28.264H16.0873C15.0556 28.264 14.2162 29.1034 14.2162 30.1351V32.4553H13.1934C12.9867 32.4553 12.8192 32.6229 12.8192 32.8295C12.8192 33.0362 12.9867 33.2037 13.1934 33.2037H21.6757C21.8823 33.2037 22.0499 33.0362 22.0499 32.8295C22.0499 32.6229 21.8823 32.4553 21.6757 32.4553ZM19.9044 32.4553H14.9647V30.1351C14.9647 29.5161 15.4683 29.0125 16.0873 29.0125H18.7817C19.4008 29.0125 19.9044 29.5161 19.9044 30.1351V32.4553Z" fill="#E91F64"/>
<path d="M28.583 18.7015C28.4113 17.6186 27.4715 16.788 26.341 16.788C25.2105 16.788 24.2706 17.6186 24.0989 18.7015C23.5732 18.7947 23.1725 19.2546 23.1725 19.8067V22.501C23.1725 23.1201 23.6762 23.6237 24.2952 23.6237H28.3867C29.0057 23.6237 29.5093 23.1201 29.5093 22.501V19.8067C29.5094 19.2546 29.1087 18.7947 28.583 18.7015ZM26.341 17.5364C27.051 17.5364 27.6489 18.0252 27.8161 18.684H24.8658C25.0331 18.0252 25.631 17.5364 26.341 17.5364ZM28.7609 22.5011C28.7609 22.7075 28.5931 22.8753 28.3867 22.8753H24.2952C24.0889 22.8753 23.921 22.7074 23.921 22.5011V21.5635C24.0381 21.6051 24.1641 21.6279 24.2952 21.6279H25.9668V21.9522C25.9668 22.1589 26.1342 22.3264 26.341 22.3264C26.5477 22.3264 26.7152 22.1589 26.7152 21.9522V21.6279H28.3867C28.5178 21.6279 28.6438 21.605 28.7609 21.5635V22.5011H28.7609ZM28.7609 20.5052C28.7609 20.7116 28.5931 20.8794 28.3867 20.8794H24.2952C24.0889 20.8794 23.921 20.7116 23.921 20.5052V19.8067C23.921 19.6003 24.0889 19.4325 24.2952 19.4325H28.3867C28.5931 19.4325 28.7609 19.6004 28.7609 19.8067V20.5052Z" fill="#E91F64"/>
</g>
<defs>
<clipPath id="clip0_4_166">
<rect width="24" height="24" fill="white" transform="translate(10 11)"/>
</clipPath>
</defs>
</svg>
